<?xml version="1.0" standalone="no"?>
<!DOCTYPE svg PUBLIC "-//W3C//DTD SVG 20010904//EN"
 "http://www.w3.org/TR/2001/REC-SVG-20010904/DTD/svg10.dtd">
<svg version="1.0" xmlns="http://www.w3.org/2000/svg"
 width="741.000000pt" height="741.000000pt" viewBox="0 0 741.000000 741.000000"
 preserveAspectRatio="xMidYMid meet">
<metadata>
Created by potrace 1.14, written by Peter Selinger 2001-2017
</metadata>
<g transform="translate(0.000000,741.000000) scale(0.100000,-0.100000)"
fill="#000000" stroke="none">
<path d="M3508 7405 c-2 -1 -43 -5 -93 -8 -80 -6 -330 -38 -395 -52 -14 -3
-47 -9 -75 -15 -85 -16 -96 -19 -230 -56 -484 -133 -928 -361 -1325 -679 -437
-349 -773 -771 -1020 -1280 -150 -308 -268 -674 -316 -979 -3 -21 -7 -46 -9
-55 -2 -9 -6 -44 -10 -76 -4 -33 -9 -69 -11 -79 -29 -160 -25 -651 6 -891 17
-127 19 -135 40 -245 112 -565 343 -1075 698 -1540 52 -69 98 -127 102 -130 4
-3 26 -27 50 -55 91 -107 262 -277 380 -375 36 -30 67 -58 70 -61 29 -33 293
-216 444 -308 346 -212 883 -410 1261 -465 23 -4 52 -9 65 -11 14 -3 45 -8 70
-10 25 -3 61 -8 80 -10 261 -32 677 -25 940 16 36 6 83 13 105 16 22 3 99 18
170 35 72 16 140 31 152 34 93 19 498 163 571 203 9 6 62 32 117 59 150 73
274 144 410 235 62 41 225 159 260 189 126 104 179 152 295 268 151 150 204
209 322 361 204 262 385 577 503 874 26 66 51 129 55 140 50 122 144 484 166
640 4 22 8 49 9 60 2 11 6 45 10 75 4 30 8 66 10 79 24 147 24 658 0 802 -2
13 -7 47 -10 74 -4 28 -8 63 -11 80 -3 27 -27 154 -39 215 -3 14 -7 36 -10 50
-21 115 -130 450 -204 627 -33 80 -146 308 -180 363 -11 19 -24 42 -28 50 -12
27 -126 203 -177 275 -145 203 -411 499 -581 645 -329 284 -661 488 -1045 645
-58 23 -116 46 -130 50 -14 4 -38 13 -55 20 -62 27 -369 112 -470 130 -34 6
-198 34 -232 40 -12 2 -57 7 -100 10 -43 4 -87 9 -98 12 -21 5 -502 13 -507 8z"/>
</g>
</svg>
