<svg width="38" height="28" viewBox="0 0 38 28" fill="none" xmlns="http://www.w3.org/2000/svg">
<path d="M0 4.9C0 2.1952 2.128 0 4.75 0H33.25C35.872 0 38 2.1952 38 4.9V23.1C38 24.3996 37.4996 25.6459 36.6088 26.5648C35.718 27.4838 34.5098 28 33.25 28H4.75C3.49022 28 2.28204 27.4838 1.39124 26.5648C0.500445 25.6459 0 24.3996 0 23.1V4.9ZM11.5656 13.1992C12.0493 13.1992 12.5282 13.1009 12.9751 12.91C13.422 12.719 13.828 12.4391 14.17 12.0863C14.5121 11.7335 14.7834 11.3146 14.9685 10.8536C15.1536 10.3927 15.2489 9.89857 15.2489 9.3996C15.2489 8.90063 15.1536 8.40654 14.9685 7.94556C14.7834 7.48457 14.5121 7.0657 14.17 6.71288C13.828 6.36005 13.422 6.08017 12.9751 5.88923C12.5282 5.69828 12.0493 5.6 11.5656 5.6C10.5887 5.6 9.65185 6.00031 8.9611 6.71288C8.27035 7.42544 7.88229 8.39188 7.88229 9.3996C7.88229 10.4073 8.27035 11.3738 8.9611 12.0863C9.65185 12.7989 10.5887 13.1992 11.5656 13.1992ZM7.75743 15.0976C7.13978 15.0976 6.54742 15.3507 6.11068 15.8012C5.67393 16.2518 5.42857 16.8628 5.42857 17.5C5.42866 18.5428 5.76663 19.5556 6.38876 20.3775C7.01089 21.1993 7.88147 21.7831 8.86214 22.036L9.006 22.0752C10.6889 22.5092 12.445 22.5092 14.1251 22.0752L14.2717 22.0388C15.2524 21.7859 16.123 21.2021 16.7451 20.3803C17.3672 19.5584 17.7052 18.5456 17.7053 17.5028C17.7056 17.1871 17.6457 16.8744 17.5288 16.5826C17.4119 16.2908 17.2404 16.0256 17.0241 15.8022C16.8078 15.5789 16.551 15.4016 16.2683 15.2807C15.9855 15.1598 15.6825 15.0976 15.3764 15.0976H7.75743ZM23.0714 8.4C22.7115 8.4 22.3663 8.5475 22.1118 8.81005C21.8573 9.0726 21.7143 9.4287 21.7143 9.8C21.7143 10.1713 21.8573 10.5274 22.1118 10.7899C22.3663 11.0525 22.7115 11.2 23.0714 11.2H31.2143C31.5742 11.2 31.9194 11.0525 32.1739 10.7899C32.4284 10.5274 32.5714 10.1713 32.5714 9.8C32.5714 9.4287 32.4284 9.0726 32.1739 8.81005C31.9194 8.5475 31.5742 8.4 31.2143 8.4H23.0714ZM23.0714 16.8C22.7115 16.8 22.3663 16.9475 22.1118 17.2101C21.8573 17.4726 21.7143 17.8287 21.7143 18.2C21.7143 18.5713 21.8573 18.9274 22.1118 19.19C22.3663 19.4525 22.7115 19.6 23.0714 19.6H31.2143C31.5742 19.6 31.9194 19.4525 32.1739 19.19C32.4284 18.9274 32.5714 18.5713 32.5714 18.2C32.5714 17.8287 32.4284 17.4726 32.1739 17.2101C31.9194 16.9475 31.5742 16.8 31.2143 16.8H23.0714Z" fill="#932731"/>
</svg>
