<svg width="33" height="33" viewBox="0 0 33 33" fill="none" xmlns="http://www.w3.org/2000/svg">
<path d="M16.4959 0.776031C12.3211 0.786763 8.3167 2.43259 5.34098 5.36071V2.36959C5.34098 1.94695 5.17309 1.54163 4.87423 1.24277C4.57538 0.943924 4.17006 0.776031 3.74742 0.776031C3.32478 0.776031 2.91945 0.943924 2.6206 1.24277C2.32175 1.54163 2.15385 1.94695 2.15385 2.36959V9.54062C2.15385 9.96326 2.32175 10.3686 2.6206 10.6674C2.91945 10.9663 3.32478 11.1342 3.74742 11.1342H10.9184C11.3411 11.1342 11.7464 10.9663 12.0453 10.6674C12.3441 10.3686 12.512 9.96326 12.512 9.54062C12.512 9.11798 12.3441 8.71265 12.0453 8.4138C11.7464 8.11495 11.3411 7.94706 10.9184 7.94706H7.28194C8.73508 6.41929 10.5448 5.27621 12.5487 4.62039C14.5526 3.96457 16.688 3.81653 18.7632 4.18956C20.8384 4.56259 22.7886 5.44502 24.4386 6.75766C26.0887 8.0703 27.3871 9.77207 28.2172 11.7103C29.0473 13.6485 29.3832 15.7624 29.1948 17.8625C29.0064 19.9626 28.2995 21.983 27.1376 23.7424C25.9758 25.5019 24.3952 26.9454 22.5378 27.9433C20.6805 28.9413 18.6044 29.4625 16.4959 29.4601C16.0733 29.4601 15.6679 29.628 15.3691 29.9269C15.0702 30.2257 14.9023 30.6311 14.9023 31.0537C14.9023 31.4763 15.0702 31.8817 15.3691 32.1805C15.6679 32.4794 16.0733 32.6473 16.4959 32.6473C20.7223 32.6473 24.7756 30.9683 27.7641 27.9798C30.7526 24.9913 32.4315 20.938 32.4315 16.7117C32.4315 12.4853 30.7526 8.43197 27.7641 5.44347C24.7756 2.45496 20.7223 0.776031 16.4959 0.776031Z" fill="#932731"/>
<path opacity="0.5" d="M16.4959 3.96316C14.7705 3.96983 13.0644 4.32632 11.4807 5.01107C9.897 5.69582 8.46861 6.69461 7.28188 7.94707H10.9184C11.341 7.94707 11.7464 8.11496 12.0452 8.41381C12.3441 8.71266 12.512 9.11799 12.512 9.54063C12.512 9.96327 12.3441 10.3686 12.0452 10.6674C11.7464 10.9663 11.341 11.1342 10.9184 11.1342H3.74736C3.36137 11.1315 2.98979 10.9872 2.70311 10.7287C2.41643 10.4702 2.23458 10.1155 2.19204 9.73186C0.99857 12.1586 0.443829 14.8497 0.580283 17.5506C0.716736 20.2515 1.53988 22.8729 2.97186 25.167C4.40384 27.4611 6.39733 29.3521 8.7638 30.661C11.1303 31.9699 13.7915 32.6535 16.4959 32.6473C16.0732 32.6473 15.6679 32.4794 15.369 32.1805C15.0702 31.8817 14.9023 31.4764 14.9023 31.0537C14.9023 30.6311 15.0702 30.2257 15.369 29.9269C15.6679 29.628 16.0732 29.4602 16.4959 29.4602C19.877 29.4602 23.1196 28.117 25.5104 25.7262C27.9012 23.3354 29.2444 20.0928 29.2444 16.7117C29.2444 13.3305 27.9012 10.0879 25.5104 7.69711C23.1196 5.3063 19.877 3.96316 16.4959 3.96316ZM19.683 18.3052H16.4959C16.0732 18.3052 15.6679 18.1373 15.369 17.8385C15.0702 17.5396 14.9023 17.1343 14.9023 16.7117V11.931C14.9023 11.5083 15.0702 11.103 15.369 10.8042C15.6679 10.5053 16.0732 10.3374 16.4959 10.3374C16.9185 10.3374 17.3238 10.5053 17.6227 10.8042C17.9215 11.103 18.0894 11.5083 18.0894 11.931V15.1181H19.683C20.1056 15.1181 20.5109 15.286 20.8098 15.5848C21.1087 15.8837 21.2765 16.289 21.2765 16.7117C21.2765 17.1343 21.1087 17.5396 20.8098 17.8385C20.5109 18.1373 20.1056 18.3052 19.683 18.3052Z" fill="#932731"/>
<path d="M19.683 18.3052H16.4959C16.0733 18.3052 15.6679 18.1373 15.3691 17.8385C15.0702 17.5396 14.9023 17.1343 14.9023 16.7116V11.931C14.9023 11.5083 15.0702 11.103 15.3691 10.8041C15.6679 10.5053 16.0733 10.3374 16.4959 10.3374C16.9185 10.3374 17.3239 10.5053 17.6227 10.8041C17.9216 11.103 18.0895 11.5083 18.0895 11.931V15.1181H19.683C20.1057 15.1181 20.511 15.286 20.8098 15.5848C21.1087 15.8837 21.2766 16.289 21.2766 16.7116C21.2766 17.1343 21.1087 17.5396 20.8098 17.8385C20.511 18.1373 20.1057 18.3052 19.683 18.3052Z" fill="#932731"/>
</svg>
