<svg width="49" height="72" viewBox="0 0 49 72" fill="none" xmlns="http://www.w3.org/2000/svg">
<path d="M36.5232 34.4398V13.6466C36.5232 6.01081 31.5981 0.689453 24.4912 0.689453C17.3829 0.689453 12.4579 6.01081 12.4579 13.6466V34.4398C12.4579 42.0417 17.3843 47.3969 24.4912 47.3969C31.5981 47.3969 36.5232 42.0417 36.5232 34.4398ZM31.529 34.4398C31.529 39.331 28.7209 42.4719 24.4898 42.4719C20.2587 42.4719 17.4492 39.331 17.4492 34.4398V13.6466C17.4492 8.7554 20.2587 5.61449 24.4898 5.61449C28.7209 5.61449 31.5304 8.7554 31.5304 13.6466L31.529 34.4398ZM9.71611 66.437C9.38786 66.4374 9.06295 66.5028 8.76016 66.6296C8.45738 66.7563 8.18275 66.9419 7.95215 67.1755C7.72156 67.4091 7.5396 67.6861 7.41678 67.9905C7.29397 68.2949 7.23275 68.6207 7.23666 68.9489C7.23327 69.2755 7.29508 69.5994 7.41848 69.9017C7.54188 70.2041 7.72439 70.4788 7.95531 70.7097C8.18622 70.9406 8.46091 71.1231 8.76326 71.2465C9.06562 71.3699 9.38956 71.4317 9.71611 71.4283H39.2677C39.5943 71.4317 39.9182 71.3699 40.2206 71.2465C40.5229 71.1231 40.7976 70.9406 41.0285 70.7097C41.2595 70.4788 41.442 70.2041 41.5654 69.9017C41.6888 69.5994 41.7506 69.2755 41.7472 68.9489C41.7509 68.6208 41.6896 68.2952 41.5667 67.991C41.4438 67.6867 41.2618 67.4099 41.0312 67.1764C40.8006 66.943 40.526 66.7575 40.2234 66.6309C39.9207 66.5042 39.5959 66.4388 39.2677 66.4384H26.9707V58.7349C39.5978 57.6772 48.1263 48.6197 48.1263 35.6287V28.9196C48.1297 28.593 48.0679 28.2691 47.9445 27.9667C47.8211 27.6644 47.6386 27.3897 47.4077 27.1588C47.1768 26.9279 46.9021 26.7453 46.5997 26.6219C46.2974 26.4985 45.9734 26.4367 45.6469 26.4401C45.3185 26.436 44.9927 26.4971 44.6881 26.6198C44.3835 26.7426 44.1063 26.9245 43.8726 27.1551C43.6388 27.3857 43.4531 27.6604 43.3263 27.9633C43.1994 28.2662 43.1339 28.5912 43.1336 28.9196V35.4313C43.1336 46.703 35.7954 54.1738 24.4912 54.1738C13.1856 54.1738 5.815 46.703 5.815 35.4299V28.9196C5.8184 28.593 5.75658 28.2691 5.63318 27.9667C5.50978 27.6644 5.32728 27.3897 5.09636 27.1588C4.86544 26.9279 4.59076 26.7453 4.2884 26.6219C3.98605 26.4985 3.66211 26.4367 3.33556 26.4401C3.00722 26.436 2.68133 26.4971 2.37676 26.6198C2.07219 26.7426 1.795 26.9245 1.56124 27.1551C1.32748 27.3857 1.1418 27.6604 1.01496 27.9633C0.888108 28.2662 0.822613 28.5912 0.822266 28.9196V35.6287C0.822266 48.6197 9.38326 57.6772 21.9779 58.7349V66.437H9.71611Z" fill="#922731"/>
</svg>
