<svg width="56" height="46" viewBox="0 0 56 46" fill="none" xmlns="http://www.w3.org/2000/svg">
<g clip-path="url(#clip0_2_127)">
<path d="M48.8466 39.781C48.5016 39.7027 48.1566 39.1898 47.6582 38.7565C47.4698 38.6316 47.267 38.5313 47.0546 38.458C46.7835 38.3485 46.4419 38.2275 46.0656 38.0938C45.7968 37.9993 45.8214 38.0096 45.7598 37.7676C45.6982 37.5256 45.5246 37.7434 45.3768 37.7676C45.229 37.7918 45.1405 37.5924 44.875 37.4219C44.6096 37.2513 44.315 37.3469 43.9701 37.408L43.624 37.2997C43.5928 37.2422 43.5576 37.1871 43.5187 37.1349C43.3787 36.9586 43.1357 36.9839 42.8411 36.8318C42.6944 36.7557 42.5253 36.8318 42.3931 36.9251L41.8186 36.7546C41.6192 36.6808 41.3482 36.4319 41.3616 36.1668C41.375 35.9017 41.1914 35.624 41.0626 35.3301C40.9338 35.0362 40.8912 34.4634 40.8699 34.2294C40.8486 33.9955 40.7579 31.1453 40.8621 28.7815C40.9662 26.4177 39.9213 24.4343 39.835 24.1415C39.7488 23.8488 39.6211 22.9809 39.7354 22.8046C39.8496 22.6283 39.7499 21.8503 39.8474 21.6452C39.9448 21.44 39.9762 20.4408 39.9762 20.1619C39.9762 19.883 39.8328 19.6767 39.8474 19.4566C39.8619 19.2365 39.676 18.4435 39.676 18.2534C39.676 18.0632 39.5338 17.6506 39.5046 17.4466C39.4755 17.2426 40.3043 16.5649 40.3894 16.2722C40.4746 15.9795 40.5754 14.7451 40.2035 13.8197C39.8317 12.8942 39.6614 10.1317 39.6614 9.14972C39.6614 8.16778 39.191 7.65146 38.9894 7.35872C38.7878 7.06599 38.1483 6.65339 37.5771 5.20008C37.0059 3.74677 35.6944 2.99648 35.495 2.99648C35.2957 2.99648 35.0672 2.82015 34.6965 2.77636C34.3258 2.73256 34.0962 2.99648 33.8397 2.99648C33.5832 2.99648 33.255 2.34993 33.255 2.34993C33.2114 1.557 33.031 0.632693 32.0701 0.133657C31.1091 -0.365378 29.9589 0.647675 29.5165 1.19051C29.0741 1.73334 29.2734 2.93771 29.2734 2.93771C29.2734 2.93771 29.2802 3.31227 29.391 3.3019C29.4596 3.29629 29.5277 3.31772 29.5814 3.36183C29.7248 3.51396 29.4694 3.67762 29.5075 4.04296C29.5456 4.40831 29.8782 4.16858 29.9107 4.14092C29.9432 4.11326 30.0104 4.16282 30.0104 4.16282C30.0303 4.22116 30.0446 4.28138 30.053 4.34261C30.0532 4.38995 30.0681 4.43598 30.0955 4.474C30.1224 4.51229 30.139 4.55722 30.1437 4.60423C30.1437 4.65379 30.2434 4.67453 30.2758 4.69643C30.3083 4.71833 30.371 4.71833 30.4024 4.81168L30.4618 5.12977C30.52 5.1786 30.5925 5.20593 30.6676 5.20739C30.7427 5.20885 30.8162 5.18437 30.8762 5.13784C31.0083 5.03296 31.4642 5.07791 31.5896 5.02259C31.7532 4.95617 31.93 4.93165 32.1048 4.95114C32.2163 4.95669 32.3237 4.99642 32.4131 5.06522C32.5025 5.13401 32.5699 5.22874 32.6066 5.33723C32.6614 5.55274 32.6614 6.11171 32.6894 6.2696C32.7185 6.44459 32.6943 6.62455 32.62 6.78477C32.5371 7.00029 32.4946 9.4655 32.508 9.85275C32.5214 10.24 31.6994 12.0875 31.463 12.2027C31.2267 12.318 30.7384 12.779 30.5581 12.8619C30.3778 12.9449 29.9981 12.9046 29.8749 12.7905C29.7517 12.6764 29.6106 12.704 28.6362 12.6902C27.6618 12.6764 26.8946 11.2715 26.8946 11.2715C27.02 10.3829 26.7557 9.93803 26.7142 9.82393C26.6728 9.70984 26.6717 9.10708 26.6862 8.92037C26.6941 8.80744 26.6749 8.69425 26.6302 8.59075C26.6302 8.59075 27.5072 5.39485 27.6886 4.87853C27.8701 4.36221 27.4523 4.24811 27.3123 4.54891C27.1723 4.84972 25.975 9.27419 25.9336 9.49432C25.8922 9.71445 25.8642 9.78014 25.5718 9.65106C25.2795 9.52198 25.1832 9.91152 25.2 9.95186C25.2168 9.9922 25.536 10.1374 25.4374 10.2665C25.3389 10.3956 25.0331 10.2665 25.0186 10.4244C25.004 10.5823 25.0331 10.6826 24.9917 10.7966C24.9502 10.9107 25.0186 11.0272 24.9357 11.298C24.8528 11.5688 25.2851 11.827 25.2851 11.827L19.9595 34.0704C19.6273 34.0349 19.3035 33.9414 19.0019 33.7938C18.5416 33.5575 18.0051 33.8733 17.2771 33.6785C16.931 33.584 12.9998 33.0343 8.97456 32.4845L8.90288 32.4741L8.32048 32.3946H8.30816C8.05141 32.36 7.80135 32.2849 7.56672 32.1722C7.29904 32.0143 6.82752 32.0489 6.54528 31.9613C6.26304 31.8737 5.90464 31.7873 5.59888 31.8737C5.29312 31.9601 5.16544 31.7665 4.91904 31.687C4.67264 31.6075 3.73072 31.7746 3.73072 31.7746L0 31.2652V46H56V41.6343C56 41.6343 49.1915 39.8606 48.8466 39.781ZM25.76 32.5329C25.3814 32.6251 24.8774 32.6251 24.7699 32.7C24.6624 32.775 24.0318 31.8656 23.8515 31.8103C23.6712 31.755 23.492 31.4772 23.492 31.4772C23.492 31.4772 23.1134 31.1257 22.988 31.181C22.8626 31.2364 22.6822 31.6063 22.9163 31.8472C22.9163 31.8472 22.5198 31.9959 22.5378 32.1445C22.5557 32.2932 21.9083 32.0143 21.9083 32.0143C21.9083 32.0143 21.6384 32.1065 21.6014 32.3474C21.6014 32.3474 22.0494 33.4999 24.5134 34.589V34.9405L20.571 34.4219L25.6827 12.3629H26.2774L28.635 14.0848C28.635 14.0848 28.747 14.2 28.635 14.7763C28.523 15.3525 28.2755 19.2768 28.3114 20.5734C28.3472 21.8699 28.4334 25.226 28.7101 26.4511C28.9867 27.6763 26.9797 31.0612 26.9797 31.0612C26.9797 31.0612 26.1419 32.4407 25.76 32.5329ZM39.4072 34.5141L39.3232 34.8598H37.4304C37.4304 34.8598 36.8368 34.6293 36.7808 34.8598L36.7248 35.0903C36.7248 35.0903 36.5008 34.9751 36.4134 35.1629C36.3633 35.2765 36.3439 35.402 36.3574 35.526L27.6797 35.1629C27.7261 34.8575 27.7261 34.5464 27.6797 34.2409C27.6069 33.6578 27.5677 33.1495 27.7122 32.9559C27.8566 32.7623 29.7125 30.0274 29.8872 29.8176L30.0608 29.609C30.0608 29.609 31.3018 27.8572 31.2738 27.2176C31.2458 26.5779 32.2056 24.6313 32.2336 24.5438C32.2616 24.4562 36.8659 22.4796 36.8659 22.4796V23.6506C36.8659 23.6506 37.1202 23.9041 37.3453 23.8465C37.3453 23.8465 37.7406 25.0958 38.052 25.2122C38.3634 25.3286 38.8987 30.8215 39.097 31.2283C39.2952 31.6351 39.4968 34.1649 39.4117 34.5141H39.4072Z" fill="#922731"/>
<path d="M33.8363 2.99651C33.5798 2.99651 33.2517 2.34996 33.2517 2.34996C33.208 1.55703 33.0277 0.632723 32.0667 0.133688C31.1058 -0.365348 29.9544 0.647706 29.512 1.19054C29.0696 1.73337 29.2701 2.93774 29.2701 2.93774C29.2701 2.93774 29.2768 3.3123 29.3877 3.30193C29.4562 3.29632 29.5243 3.31775 29.5781 3.36186C29.7214 3.51399 29.4661 3.67765 29.5042 4.04299C29.5422 4.40834 29.8749 4.16861 29.9062 4.14095C29.9376 4.11329 30.007 4.16285 30.007 4.16285C30.0269 4.22119 30.0412 4.28141 30.0496 4.34264C30.0498 4.38998 30.0647 4.43601 30.0922 4.47403C30.1202 4.51377 30.1365 4.56099 30.1392 4.61002C30.1392 4.65958 30.24 4.68033 30.2725 4.70222C30.305 4.72412 30.3677 4.72412 30.399 4.81747L30.4584 5.13557C30.5167 5.18439 30.5891 5.21172 30.6642 5.21318C30.7394 5.21465 30.8128 5.19016 30.8728 5.14363C31.005 5.03876 31.4608 5.0837 31.5862 5.02838C31.7498 4.96197 31.9266 4.93745 32.1014 4.95693L33.8363 2.99651Z" fill="#922731"/>
</g>
<defs>
<clipPath id="clip0_2_127">
<rect width="56" height="46" fill="white"/>
</clipPath>
</defs>
</svg>
