<svg width="32" height="47" viewBox="0 0 32 47" fill="none" xmlns="http://www.w3.org/2000/svg">
<path d="M12.0586 1.73642C12.683 0.713452 13.4044 -0.125181 14.7279 0.0151679C15.6176 0.110051 16.2671 0.605225 16.5342 1.48883C16.666 1.92618 16.7705 2.35217 17.0097 2.76679C17.3326 3.32621 16.9955 3.89601 16.6174 4.30865C16.1801 4.78603 16.337 5.00693 16.8277 5.16952C17.3184 5.33211 17.576 5.76254 17.844 6.15196C19.0688 7.93597 20.2794 9.73382 20.2288 12.0822C20.2232 12.3402 20.2903 12.6441 20.1849 12.8482C19.5136 14.1454 19.8989 15.4861 20.0138 16.8046C20.1556 18.4028 19.975 20.0104 20.2132 21.6061C20.3149 22.2871 20.0015 22.8653 19.4616 23.2819C19.1468 23.525 18.9034 23.4524 18.9417 23.0348C19.0074 22.3405 18.8405 21.6546 18.9681 20.9548C19.1161 20.1433 18.8986 19.3793 18.4581 18.6909C18.4959 17.3986 18.4798 16.1073 18.3588 14.821C18.3394 14.6174 18.4094 14.2551 17.9868 14.3035C17.5741 14.3505 17.7301 14.6668 17.7131 14.8906C17.5944 16.432 18.0657 17.9052 18.1858 19.4218C18.2747 20.7828 18.5772 22.1319 18.3186 23.5122C18.2217 24.0291 18.148 24.5628 17.8228 24.9537C17.0234 25.9139 17.0494 27.0239 17.1496 28.1773C17.282 29.6964 17.7121 31.1256 18.3862 32.4594C19.2437 34.156 19.7878 36.063 21.3534 37.3024C21.7789 37.6415 21.4796 38.0437 21.1279 38.2256C20.2671 38.6743 19.6001 39.4724 18.6127 39.7447C23.0783 40.7192 27.354 42.5616 31.9827 42.6278C31.9827 43.8692 31.9539 45.1116 31.9969 46.351C32.0149 46.8654 31.9246 46.9994 31.3985 46.9979C23.2625 46.9748 15.1267 46.9694 6.99112 46.9816H1.35407C1.66606 44.7385 1.72467 42.5413 0.330657 40.5893C0.0943024 40.2562 0.00354237 39.8416 -0.000239297 39.4141C-0.0101662 38.2903 0.642644 37.7477 1.63297 38.1668C2.7807 38.6526 3.90197 39.0153 5.18348 39.0435C7.08141 39.0855 8.97224 39.4245 10.8825 39.3736C11.2275 39.3642 11.4705 39.3835 11.2384 38.8749C11.012 38.3808 11.1486 37.9281 11.6388 37.6182C12.3063 37.1952 12.6721 36.531 12.9307 35.7799C13.5263 34.0502 14.0179 32.286 14.4973 30.5183C14.8078 29.3693 14.6291 28.2208 14.4027 27.0807C14.8849 26.5089 14.7497 26.0192 14.2136 25.5917C13.8506 25.3026 13.6062 24.9177 13.3717 24.5194C12.5369 23.1015 11.7645 21.6531 11.3939 19.9234C11.1935 20.1928 11.1703 20.4048 11.1963 20.6044C11.2932 21.3556 10.6215 21.3635 10.258 21.575C9.90489 21.7801 9.54894 21.4396 9.35608 21.0897C9.18364 20.7766 9.05186 20.4409 8.9642 20.0914C8.58935 18.5708 8.64229 17.0656 9.21379 15.6028C9.36648 15.2124 9.3419 15.1017 8.89944 14.9292C7.69593 14.4597 6.50612 14.7696 5.31017 14.8106C4.99393 14.8215 5.08374 15.0933 5.06861 15.2756C4.67627 20.048 4.2669 24.8183 3.92324 29.5941C3.85233 30.5751 3.63962 31.5501 3.72518 32.5434C3.67791 33.1078 3.63063 33.6722 3.58336 34.236C3.50678 35.1088 3.4373 35.9815 3.34701 36.8522C3.31439 37.168 3.23734 37.4893 2.81852 37.4388C2.41199 37.3894 2.39308 37.0677 2.40159 36.747C2.41152 36.3867 2.44177 36.027 2.46635 35.6672C2.53821 34.6129 2.611 33.5587 2.68474 32.5044C2.7358 32.0418 2.79867 31.5803 2.83648 31.1162C3.01989 28.872 3.19937 26.6277 3.3749 24.3834C3.62039 21.2866 3.86667 18.1897 4.11374 15.0928C4.13549 14.8215 4.0816 14.693 3.81688 14.5773C3.36261 14.3797 3.36308 13.6522 3.6902 13.246C3.96957 12.9001 4.30188 12.5442 4.34206 12.0407C4.63514 8.40347 4.92759 4.7666 5.21941 1.13005C5.24352 0.83008 5.17214 0.492057 5.66895 0.537028C6.13693 0.578539 6.205 0.774731 6.16719 1.23531C5.876 4.79345 5.65288 8.35949 5.31631 11.9137C5.24635 12.6549 5.52147 12.9386 6.02018 13.2252C6.24566 13.3547 6.48059 13.3903 6.73255 13.4002C7.82687 13.4427 8.90701 13.2628 9.99424 13.1827C10.6244 13.1368 10.8659 12.7874 11.0488 12.2161C11.3727 11.2065 11.34 10.1746 11.3325 9.14079C11.3277 8.20876 11.7012 7.32911 12.2935 6.79984C12.8319 6.319 12.7033 6.02446 12.4698 5.61083C11.7702 4.37932 11.7144 3.08455 12.0586 1.73642ZM16.8802 39.5935C17.4886 39.6226 19.1369 38.2172 19.2366 37.5881C19.2576 37.4103 19.2348 37.2298 19.1705 37.0638C18.5162 35.304 17.48 33.8021 16.2822 32.409C16.0865 32.1817 15.8984 32.1362 15.7977 32.4752C15.4692 33.5899 14.9655 34.6395 14.3072 35.5812C13.6251 36.5542 13.8771 37.8352 13.22 38.8038C12.9761 39.164 13.1411 39.3662 13.5547 39.3889C14.6651 39.4482 15.7736 39.5238 16.8825 39.5935H16.8802Z" fill="#932731"/>
</svg>
