<svg width="807" height="451" viewBox="0 0 807 451" fill="none" xmlns="http://www.w3.org/2000/svg">
<path d="M617.983 383.072C597.905 389.907 599.73 370.023 499.947 362.567L496.544 399.567H806.544L798.683 398.02C791.02 397.48 774.583 395.429 770.144 391.543C765.704 387.656 721.612 384.276 700.121 383.072C679.435 380.794 634.046 377.604 617.983 383.072Z" fill="#231514"/>
<g clip-path="url(#clip0_32_58)">
<path d="M585.098 372.765C585.098 372.765 604.722 327.236 618.364 305.498C618.364 305.498 616.089 332.278 585.098 372.765Z" fill="#231514"/>
<path d="M595.977 371.63C595.977 371.63 598.567 328.479 603.249 306.608C603.249 306.608 609.164 329.222 595.977 371.63Z" fill="#231514"/>
<path d="M559.146 403.694C559.146 403.694 572.184 362.522 582.07 342.487C582.07 342.487 582.31 365.878 559.146 403.694Z" fill="#231514"/>
<path d="M589.607 387.34C589.607 387.34 602.67 346.168 612.548 326.134C612.548 326.134 612.755 349.524 589.607 387.34Z" fill="#231514"/>
<path d="M600.552 381.881C600.552 381.881 613.16 325.457 624.875 297.567C624.875 297.567 629.814 328.596 600.552 381.881Z" fill="#231514"/>
<path d="M589.292 394.352C589.292 394.352 588.928 336.56 594.116 306.75C594.116 306.75 605.871 335.825 589.292 394.352Z" fill="#231514"/>
<path d="M579.613 423.879C579.613 423.879 579.266 366.087 584.436 336.226C584.436 336.243 596.192 365.352 579.613 423.879Z" fill="#231514"/>
<path d="M505.934 418.703C505.934 418.703 502.269 361.011 506.844 330.959C506.844 330.959 519.882 359.475 505.934 418.703Z" fill="#231514"/>
<path d="M504.767 399.862C504.767 399.862 515.803 350.735 526.054 326.434C526.054 326.434 530.314 353.498 504.767 399.862Z" fill="#231514"/>
<path d="M635.853 399.228C635.853 399.228 623.791 351.094 613.814 327.436C613.814 327.419 611.762 354.216 635.853 399.228Z" fill="#231514"/>
<path d="M625.33 396.331C625.33 396.331 629.665 353.331 628.548 330.959C628.548 330.959 619.083 352.329 625.33 396.331Z" fill="#231514"/>
<path d="M656.544 433.988C656.544 433.988 650.248 391.222 643.704 369.843C643.704 369.843 639.75 392.892 656.544 433.988Z" fill="#231514"/>
<path d="M629.077 412.876C629.077 412.876 622.782 370.11 616.229 348.731C616.229 348.731 612.291 371.78 629.077 412.876Z" fill="#231514"/>
<path d="M619.15 405.664C619.15 405.664 615.75 347.972 608.651 318.529C608.651 318.529 598.806 348.347 619.15 405.664Z" fill="#231514"/>
<path d="M628.266 419.855C628.266 419.855 637.871 362.873 637.549 332.628C637.549 332.628 621.284 359.383 628.266 419.855Z" fill="#231514"/>
<path d="M633.081 450.567C633.081 450.567 642.703 393.568 642.364 363.298C642.364 363.298 626.099 390.103 633.081 450.567Z" fill="#231514"/>
</g>
<g clip-path="url(#clip1_32_58)">
<path d="M429.364 355.288C429.364 355.288 453.074 300.748 469.564 274.708C469.544 274.708 466.824 306.788 429.364 355.288Z" fill="#231514"/>
<path d="M442.544 353.978C442.544 353.978 445.684 302.288 451.344 276.088C451.304 276.038 458.454 303.128 442.544 353.978Z" fill="#231514"/>
<path d="M397.954 392.338C397.954 392.338 413.754 342.978 425.694 318.978C425.694 318.978 425.944 347.038 397.954 392.338Z" fill="#231514"/>
<path d="M434.804 372.748C434.804 372.748 450.594 323.428 462.544 299.428C462.544 299.428 462.794 327.448 434.804 372.748Z" fill="#231514"/>
<path d="M448.044 366.158C448.044 366.158 463.274 298.618 477.444 265.208C477.444 265.208 483.404 302.388 448.044 366.158Z" fill="#231514"/>
<path d="M434.424 381.158C434.424 381.158 434.004 311.928 440.254 276.158C440.254 276.178 454.464 311.038 434.424 381.158Z" fill="#231514"/>
<path d="M423.014 388.508C423.514 365.208 424.884 332.578 428.564 311.508C428.564 311.508 439.094 337.348 429.234 389.268" fill="#231514"/>
<path d="M428.414 388.078C435.624 371.348 446.214 348.078 455.064 333.948C455.064 333.948 455.064 355.768 432.684 390.498" fill="#231514"/>
<path d="M490.714 386.978C490.714 386.978 476.134 329.318 464.064 300.978C464.064 300.978 461.594 333.068 490.714 386.978Z" fill="#231514"/>
<path d="M477.964 383.528C477.964 383.528 483.224 332.008 481.884 305.238C481.884 305.238 470.444 330.818 477.964 383.528Z" fill="#231514"/>
<path d="M479.684 394.778C479.684 394.778 474.914 352.118 467.004 326.508C467.004 326.508 459.384 345.558 479.684 394.778Z" fill="#231514"/>
<path d="M470.544 394.698C470.544 394.698 466.434 325.588 457.854 290.328C457.834 290.328 445.934 326.038 470.544 394.698Z" fill="#231514"/>
<path d="M483.544 399.248C486.844 377.858 493.054 333.858 492.764 307.158C492.764 307.158 475.204 335.828 480.404 400.158" fill="#231514"/>
<path d="M495.184 393.088C497.184 375.748 498.724 357.588 498.574 343.948C498.574 343.948 489.284 359.128 486.224 392.148" fill="#231514"/>
<path d="M97.9436 286.118C97.9436 286.118 121.654 231.578 138.144 205.538C138.144 205.538 135.404 237.618 97.9436 286.118Z" fill="#231514"/>
<path d="M111.084 284.758C111.084 284.758 114.224 233.068 119.884 206.868C119.884 206.868 127.034 233.978 111.084 284.758Z" fill="#231514"/>
<path d="M66.5437 323.168C66.5437 323.168 82.3437 273.848 94.2837 249.848C94.2737 249.848 94.5437 277.868 66.5437 323.168Z" fill="#231514"/>
<path d="M103.384 303.578C103.384 303.578 119.184 254.258 131.124 230.258C131.124 230.258 131.374 258.278 103.384 303.578Z" fill="#231514"/>
<path d="M116.624 296.978C116.624 296.978 131.854 229.448 146.024 196.028C146.024 196.038 151.994 233.218 116.624 296.978Z" fill="#231514"/>
<path d="M103.004 311.978C103.004 311.978 102.584 242.748 108.834 206.978C108.834 206.978 123.044 241.868 103.004 311.978Z" fill="#231514"/>
<path d="M91.3138 347.358C91.3138 347.358 90.8938 278.128 97.1438 242.358C97.1438 242.378 111.354 277.238 91.3138 347.358Z" fill="#231514"/>
<path d="M2.24362 341.148C2.24362 341.148 -2.17638 272.028 3.34362 235.978C3.34362 235.978 19.1136 270.198 2.24362 341.148Z" fill="#231514"/>
<path d="M0.84375 318.578C0.84375 318.578 14.1738 259.728 26.5538 230.578C26.5438 230.618 31.7237 263.028 0.84375 318.578Z" fill="#231514"/>
<path d="M159.294 317.828C159.294 317.828 144.714 260.158 132.644 231.828C132.644 231.808 130.174 263.898 159.294 317.828Z" fill="#231514"/>
<path d="M146.544 314.358C146.544 314.358 151.804 262.838 150.464 236.068C150.464 236.068 139.024 261.648 146.544 314.358Z" fill="#231514"/>
<path d="M184.294 359.458C184.294 359.458 176.684 308.238 168.784 282.618C168.784 282.618 164.004 310.238 184.294 359.458Z" fill="#231514"/>
<path d="M151.104 334.168C151.104 334.168 143.544 282.978 135.544 257.338C135.544 257.338 130.804 284.978 151.104 334.168Z" fill="#231514"/>
<path d="M139.104 325.528C139.104 325.528 134.994 256.418 126.414 221.158C126.414 221.158 114.544 256.878 139.104 325.528Z" fill="#231514"/>
<path d="M150.114 342.528C150.114 342.528 161.724 274.278 161.334 237.978C161.334 237.978 141.674 270.098 150.114 342.528Z" fill="#231514"/>
<path d="M155.934 379.328C155.934 379.328 167.544 311.068 167.164 274.778C167.164 274.778 147.544 306.888 155.934 379.328Z" fill="#231514"/>
<path d="M436.674 346.148C433.594 345.468 430.514 341.018 426.064 337.258C424.381 336.175 422.571 335.305 420.674 334.668C418.254 333.718 415.204 332.668 411.844 331.508C409.444 330.688 409.664 330.778 409.114 328.678C408.564 326.578 407.014 328.468 405.694 328.678C404.374 328.888 403.584 327.158 401.214 325.678C398.844 324.198 396.214 325.028 393.134 325.558L390.044 324.618C389.765 324.12 389.451 323.642 389.104 323.188C387.854 321.658 385.684 321.878 383.054 320.558C381.744 319.898 380.234 320.558 379.054 321.368L373.924 319.888C372.144 319.248 369.724 317.088 369.844 314.788C369.964 312.488 368.324 310.078 367.174 307.528C366.024 304.978 365.644 300.008 365.454 297.978C365.264 295.948 364.454 271.218 365.384 250.708C366.314 230.198 356.984 212.988 356.214 210.448C355.444 207.908 354.304 200.378 355.324 198.848C356.344 197.318 355.454 190.568 356.324 188.788C357.194 187.008 357.474 178.338 357.474 175.918C357.474 173.498 356.194 171.708 356.324 169.798C356.454 167.888 354.794 161.008 354.794 159.358C354.794 157.708 353.524 154.128 353.264 152.358C353.004 150.588 360.404 144.708 361.164 142.168C361.924 139.628 362.824 128.918 359.504 120.888C356.184 112.858 354.664 88.8881 354.664 80.3681C354.664 71.8481 350.464 67.3681 348.664 64.8281C346.864 62.2881 341.154 58.7081 336.054 46.0981C330.954 33.4881 319.244 26.9781 317.464 26.9781C315.684 26.9781 313.644 25.4481 310.334 25.0681C307.024 24.6881 304.974 26.9781 302.684 26.9781C300.394 26.9781 297.464 21.3681 297.464 21.3681C297.074 14.4881 295.464 6.46814 286.884 2.13814C278.304 -2.19186 268.034 6.59814 264.084 11.3081C260.134 16.0181 261.914 26.4681 261.914 26.4681C261.914 26.4681 261.974 29.7181 262.964 29.6281C263.576 29.5795 264.184 29.7654 264.664 30.1481C265.944 31.4681 263.664 32.8881 264.004 36.0581C264.344 39.2281 267.314 37.1481 267.604 36.9081C267.894 36.6681 268.494 37.0981 268.494 37.0981C268.671 37.6043 268.799 38.1269 268.874 38.6581C268.876 39.0689 269.009 39.4683 269.254 39.7981C269.494 40.1304 269.642 40.5202 269.684 40.9281C269.684 41.3581 270.574 41.5381 270.864 41.7281C271.154 41.9181 271.714 41.9181 271.994 42.7281L272.524 45.4881C273.044 45.9118 273.691 46.1489 274.362 46.1616C275.032 46.1743 275.688 45.9618 276.224 45.5581C277.404 44.6481 281.474 45.0381 282.594 44.5581C284.054 43.9819 285.633 43.7691 287.194 43.9381C288.189 43.9864 289.148 44.3311 289.946 44.928C290.744 45.5249 291.346 46.3468 291.674 47.2881C292.164 49.1581 292.164 54.0081 292.414 55.3781C292.673 56.8964 292.457 58.4579 291.794 59.8481C291.054 61.7181 290.674 83.1081 290.794 86.4681C290.914 89.8281 283.574 105.858 281.464 106.858C279.354 107.858 274.994 111.858 273.384 112.578C271.774 113.298 268.384 112.948 267.284 111.958C266.184 110.968 264.924 111.208 256.224 111.088C247.524 110.968 240.674 98.7781 240.674 98.7781C241.794 91.0681 239.434 87.2081 239.064 86.2181C238.694 85.2281 238.684 79.9981 238.814 78.3781C238.884 77.3983 238.712 76.4162 238.314 75.5181C238.314 75.5181 246.144 47.7881 247.764 43.3081C249.384 38.8281 245.654 37.8381 244.404 40.4481C243.154 43.0581 232.464 81.4481 232.094 83.3581C231.724 85.2681 231.474 85.8381 228.864 84.7181C226.254 83.5981 225.394 86.9781 225.544 87.3281C225.694 87.6781 228.544 88.9381 227.664 90.0581C226.784 91.1781 224.054 90.0581 223.924 91.4281C223.794 92.7981 224.054 93.6681 223.684 94.6581C223.314 95.6481 223.924 96.6581 223.184 99.0081C222.444 101.358 226.304 103.598 226.304 103.598L178.754 296.598C175.788 296.291 172.896 295.479 170.204 294.198C166.094 292.148 161.304 294.888 154.804 293.198C151.714 292.378 116.614 287.608 80.6737 282.838L80.0337 282.748L74.8337 282.058H74.7237C72.4313 281.757 70.1986 281.106 68.1037 280.128C65.7137 278.758 61.5037 279.058 58.9837 278.298C56.4637 277.538 53.2637 276.788 50.5337 277.538C47.8037 278.288 46.6637 276.608 44.4637 275.918C42.2637 275.228 33.8537 276.678 33.8537 276.678L0.543701 272.258V400.108H500.544V362.228C500.544 362.228 439.754 346.838 436.674 346.148ZM230.544 283.258C227.164 284.058 222.664 284.058 221.704 284.708C220.744 285.358 215.114 277.468 213.504 276.988C211.894 276.508 210.294 274.098 210.294 274.098C210.294 274.098 206.914 271.048 205.794 271.528C204.674 272.008 203.064 275.218 205.154 277.308C205.154 277.308 201.614 278.598 201.774 279.888C201.934 281.178 196.154 278.758 196.154 278.758C196.154 278.758 193.744 279.558 193.414 281.648C193.414 281.648 197.414 291.648 219.414 301.098V304.148L184.214 299.648L229.854 108.248H235.164L256.214 123.188C256.214 123.188 257.214 124.188 256.214 129.188C255.214 134.188 253.004 168.238 253.324 179.488C253.644 190.738 254.414 219.858 256.884 230.488C259.354 241.118 241.434 270.488 241.434 270.488C241.434 270.488 233.954 282.458 230.544 283.258ZM352.394 300.448L351.644 303.448H334.744C334.744 303.448 329.444 301.448 328.944 303.448L328.444 305.448C328.444 305.448 326.444 304.448 325.664 306.078C325.216 307.064 325.043 308.152 325.164 309.228L247.684 306.078C248.098 303.428 248.098 300.729 247.684 298.078C247.034 293.018 246.684 288.608 247.974 286.928C249.264 285.248 265.834 261.518 267.394 259.698L268.944 257.888C268.944 257.888 280.024 242.688 279.774 237.138C279.524 231.588 288.094 214.698 288.344 213.938C288.594 213.178 329.704 196.028 329.704 196.028V206.188C329.704 206.188 331.974 208.388 333.984 207.888C333.984 207.888 337.514 218.728 340.294 219.738C343.074 220.748 347.854 268.408 349.624 271.938C351.394 275.468 353.194 297.418 352.434 300.448H352.394Z" fill="#231514"/>
<path d="M302.654 26.9781C300.364 26.9781 297.434 21.3681 297.434 21.3681C297.044 14.4881 295.434 6.46814 286.854 2.13814C278.274 -2.19186 267.994 6.59814 264.044 11.3081C260.094 16.0181 261.884 26.4681 261.884 26.4681C261.884 26.4681 261.944 29.7181 262.934 29.6281C263.546 29.5795 264.154 29.7654 264.634 30.1481C265.914 31.4681 263.634 32.8881 263.974 36.0581C264.314 39.2281 267.284 37.1481 267.564 36.9081C267.844 36.6681 268.464 37.0981 268.464 37.0981C268.642 37.6043 268.769 38.1269 268.844 38.6581C268.846 39.0689 268.979 39.4683 269.224 39.7981C269.474 40.143 269.62 40.5527 269.644 40.9781C269.644 41.4081 270.544 41.5881 270.834 41.7781C271.124 41.9681 271.684 41.9681 271.964 42.7781L272.494 45.5381C273.014 45.9618 273.661 46.1989 274.332 46.2116C275.002 46.2243 275.658 46.0118 276.194 45.6081C277.374 44.6981 281.444 45.0881 282.564 44.6081C284.024 44.0319 285.603 43.8191 287.164 43.9881L302.654 26.9781Z" fill="url(#paint0_radial_32_58)"/>
</g>
<defs>
<radialGradient id="paint0_radial_32_58" cx="0" cy="0" r="1" gradientUnits="userSpaceOnUse" gradientTransform="translate(249.974 35.5381) scale(27.67 27.67)">
<stop stop-color="#E5B51C"/>
<stop offset="0.03" stop-color="#DBAC1C"/>
<stop offset="0.22" stop-color="#A37F19"/>
<stop offset="0.4" stop-color="#755917"/>
<stop offset="0.58" stop-color="#523B16"/>
<stop offset="0.74" stop-color="#382615"/>
<stop offset="0.88" stop-color="#281914"/>
<stop offset="1" stop-color="#231514"/>
</radialGradient>
<clipPath id="clip0_32_58">
<rect width="152" height="153" fill="white" transform="translate(504.544 297.567)"/>
</clipPath>
<clipPath id="clip1_32_58">
<rect width="500" height="399.14" fill="white" transform="translate(0.543701 0.978134)"/>
</clipPath>
</defs>
</svg>
